# xmcd
#
# Track frame offsets:
# 150
# 18782
# 37187
# 49972
# 75332
# 91752
# 113992
# 137135
# 153080
#
# Disc length: 2402 seconds
#
#
# Revision: 2
# Processed by: cddbd v1.5.2PL0 Copyright (c) Steve Scherf et al.
# Submitted via: FreeRIP 2.945 
#
DISCID=64096009
DTITLE=Blues Etilicos - Agua Mineral
DYEAR=1989
DGENRE=Blues
TTITLE0=Funky Blues (homenagem a Charlie McCoy)
TTITLE1=Driftin' Blues
TTITLE2=Frank Zappa vai pr  Martinica
TTITLE3=It's not easy
TTITLE4=Crossroads
TTITLE5=Mona's Blues
TTITLE6=Vou pega ma beibe
TTITLE7=Kansas City
TTITLE8=Maracujina
EXTD=
EXTT0=
EXTT1=
EXTT2=
EXTT3=
EXTT4=
EXTT5=
EXTT6=
EXTT7=
EXTT8=
PLAYORDER=
